# xmcd
#
# Track frame offsets:
#	150
#	16301
#	31707
#	49979
#	61016
#	76617
#	91179
#	104544
#	116141
#	129244
#	140975
#	155799
#
# Disc length: 2247 seconds
# Revision: 1
# Processed by: cddbd v1.5.2PL0 Copyright (c) Steve Scherf et al.
# Submitted via: dBpowerAMP V12.0
#
DISCID=9708c50c
DTITLE=Delta Reign - Nothing But Sky
DYEAR=2015
DGENRE=Country
TTITLE0=Calico Sundown
TTITLE1=Long Haul
TTITLE2=Country Sunday
TTITLE3=Nothing But Sky
TTITLE4=My Love Will Remain
TTITLE5=Back Around The Mountain
TTITLE6=I Can't Get You Off My Mind
TTITLE7=Runnin' On Faith
TTITLE8=Heartbreak Hotel
TTITLE9=If You Aint Lovin'
TTITLE10=I'm Forgiving You
TTITLE11=Turn the Cards Slowly
EXTD=
EXTT0=
EXTT1=
EXTT2=
EXTT3=
EXTT4=
EXTT5=
EXTT6=
EXTT7=
EXTT8=
EXTT9=
EXTT10=
EXTT11=
PLAYORDER=
